<svg width="204" height="256" viewBox="0 0 204 256" fill="none" xmlns="http://www.w3.org/2000/svg">
<path d="M57.375 102.4C53.7625 102.4 50.7365 101.171 48.297 98.7136C45.8575 96.256 44.6335 93.2181 44.625 89.6C44.6165 85.9819 45.8405 82.944 48.297 80.4864C50.7535 78.0288 53.7795 76.8 57.375 76.8C60.9705 76.8 64.0008 78.0288 66.4658 80.4864C68.9308 82.944 70.1505 85.9819 70.125 89.6C70.0995 93.2181 68.8755 96.2603 66.453 98.7264C64.0305 101.193 61.0045 102.417 57.375 102.4ZM146.625 102.4C143.013 102.4 139.987 101.171 137.547 98.7136C135.108 96.256 133.883 93.2181 133.875 89.6C133.867 85.9819 135.091 82.944 137.547 80.4864C140.004 78.0288 143.029 76.8 146.625 76.8C150.221 76.8 153.251 78.0288 155.716 80.4864C158.181 82.944 159.401 85.9819 159.375 89.6C159.349 93.2181 158.125 96.2603 155.703 98.7264C153.28 101.193 150.254 102.417 146.625 102.4ZM102 256C73.525 256 49.4062 246.08 29.6437 226.24C9.88125 206.4 0 182.187 0 153.6V89.6C0 63.5733 10.2 42.1333 30.6 25.28C51 8.42666 74.8 0 102 0C129.2 0 153 8.42666 173.4 25.28C193.8 42.1333 204 63.5733 204 89.6V217.6C204 221.227 202.776 224.269 200.328 226.726C197.88 229.184 194.854 230.409 191.25 230.4H178.5C167.875 230.4 158.844 226.667 151.406 219.2C143.969 211.733 140.25 202.667 140.25 192V191.36C140.25 187.093 138.924 183.893 136.272 181.76C133.62 179.627 130.696 178.56 127.5 178.56C124.304 178.56 121.384 179.627 118.741 181.76C116.097 183.893 114.767 187.093 114.75 191.36V192C114.75 202.24 116.981 211.733 121.444 220.48C125.906 229.227 131.856 236.48 139.294 242.24C142.481 244.587 143.599 247.467 142.647 250.88C141.695 254.293 139.621 256 136.425 256H102ZM102 153.6C122.188 153.6 139.986 147.678 155.397 135.834C170.807 123.989 178.508 108.578 178.5 89.6C178.5 82.1333 177.225 75.1445 174.675 68.6336C172.125 62.1227 168.513 56.3115 163.838 51.2C150.238 51.6267 138.656 56.7467 129.094 66.56C119.531 76.3733 114.75 88.32 114.75 102.4C114.75 106.027 113.53 109.069 111.091 111.526C108.651 113.984 105.621 115.209 102 115.2C98.379 115.191 95.353 113.963 92.922 111.514C90.491 109.065 89.267 106.027 89.25 102.4C89.25 88.32 84.4688 76.48 74.9062 66.88C65.3438 57.28 53.7625 52.16 40.1625 51.52C35.4875 56.64 31.875 62.4 29.325 68.8C26.775 75.2 25.5 82.1333 25.5 89.6C25.5 108.587 33.2053 124.002 48.6158 135.846C64.0263 147.691 81.821 153.609 102 153.6Z" fill="#64748B"/>
</svg>
