<svg width="200" height="250" viewBox="0 0 200 250" fill="none" xmlns="http://www.w3.org/2000/svg">
<path d="M56.25 100C52.7083 100 49.7417 98.8 47.35 96.4C44.9583 94 43.7583 91.0333 43.75 87.5C43.7417 83.9667 44.9417 81 47.35 78.6C49.7583 76.2 52.725 75 56.25 75C59.775 75 62.7458 76.2 65.1625 78.6C67.5792 81 68.775 83.9667 68.75 87.5C68.725 91.0333 67.525 94.0042 65.15 96.4125C62.775 98.8208 59.8083 100.017 56.25 100ZM143.75 100C140.208 100 137.242 98.8 134.85 96.4C132.458 94 131.258 91.0333 131.25 87.5C131.242 83.9667 132.442 81 134.85 78.6C137.258 76.2 140.225 75 143.75 75C147.275 75 150.246 76.2 152.662 78.6C155.079 81 156.275 83.9667 156.25 87.5C156.225 91.0333 155.025 94.0042 152.65 96.4125C150.275 98.8208 147.308 100.017 143.75 100ZM100 250C72.0833 250 48.4375 240.312 29.0625 220.937C9.6875 201.562 0 177.917 0 150V87.5C0 62.0833 10 41.1458 30 24.6875C50 8.22917 73.3333 0 100 0C126.667 0 150 8.22917 170 24.6875C190 41.1458 200 62.0833 200 87.5V212.5C200 216.042 198.8 219.012 196.4 221.412C194 223.812 191.033 225.008 187.5 225H175C164.583 225 155.729 221.354 148.438 214.062C141.146 206.771 137.5 197.917 137.5 187.5V186.875C137.5 182.708 136.2 179.583 133.6 177.5C131 175.417 128.133 174.375 125 174.375C121.867 174.375 119.004 175.417 116.412 177.5C113.821 179.583 112.517 182.708 112.5 186.875V187.5C112.5 197.5 114.687 206.771 119.062 215.312C123.437 223.854 129.271 230.937 136.562 236.562C139.688 238.854 140.783 241.667 139.85 245C138.917 248.333 136.883 250 133.75 250H100ZM100 150C119.792 150 137.242 144.217 152.35 132.65C167.458 121.083 175.008 106.033 175 87.5C175 80.2083 173.75 73.3833 171.25 67.025C168.75 60.6667 165.208 54.9917 160.625 50C147.292 50.4167 135.938 55.4167 126.562 65C117.188 74.5833 112.5 86.25 112.5 100C112.5 103.542 111.304 106.513 108.913 108.913C106.521 111.312 103.55 112.508 100 112.5C96.45 112.492 93.4833 111.292 91.1 108.9C88.7167 106.508 87.5167 103.542 87.5 100C87.5 86.25 82.8125 74.6875 73.4375 65.3125C64.0625 55.9375 52.7083 50.9375 39.375 50.3125C34.7917 55.3125 31.25 60.9375 28.75 67.1875C26.25 73.4375 25 80.2083 25 87.5C25 106.042 32.5542 121.096 47.6625 132.663C62.7708 144.229 80.2167 150.008 100 150Z" fill="url(#paint0_linear_4020_42)"/>
<defs>
<linearGradient id="paint0_linear_4020_42" x1="100" y1="0" x2="100" y2="250" gradientUnits="userSpaceOnUse">
<stop offset="1" stop-color="#64748B"/>
</linearGradient>
</defs>
</svg>
